<?xml version="1.0" standalone="yes"?>

<svg version="1.1" viewBox="0.0 0.0 256.5721784776903 256.5721784776903" fill="none" stroke="none" stroke-linecap="square" stroke-miterlimit="10" xmlns="http://www.w3.org/2000/svg" xmlns:xlink="http://www.w3.org/1999/xlink"><clipPath id="p.0"><path d="m0 0l256.57217 0l0 256.57217l-256.57217 0l0 -256.57217z" clip-rule="nonzero"></path></clipPath><g clip-path="url(#p.0)"><path fill="#000000" fill-opacity="0.0" d="m0 0l256.57217 0l0 256.57217l-256.57217 0z" fill-rule="nonzero"></path><path fill="#000000" fill-opacity="0.0" d="m43.257217 14.203412l170.04724 0l0 147.43307l-170.04724 0z" fill-rule="nonzero"></path><path stroke="#ffffff" stroke-width="2.0" stroke-linejoin="round" stroke-linecap="butt" d="m43.257217 14.203412l170.04724 0l0 147.43307l-170.04724 0z" fill-rule="nonzero"></path><path fill="#000000" fill-opacity="0.0" d="m79.855644 87.919945l0 0c0 -32.989227 26.74305 -59.73228 59.732277 -59.73228l0 0c15.841995 0 31.035126 6.2932053 42.237106 17.495182c11.201981 11.201973 17.495178 26.395111 17.495178 42.2371l0 0c0 32.989235 -26.743057 59.732292 -59.732285 59.732292l0 0c-32.989227 0 -59.732277 -26.743057 -59.732277 -59.732292z" fill-rule="nonzero"></path><path stroke="#ffffff" stroke-width="2.0" stroke-linejoin="round" stroke-linecap="butt" d="m79.855644 87.919945l0 0c0 -32.989227 26.74305 -59.73228 59.732277 -59.73228l0 0c15.841995 0 31.035126 6.2932053 42.237106 17.495182c11.201981 11.201973 17.495178 26.395111 17.495178 42.2371l0 0c0 32.989235 -26.743057 59.732292 -59.732285 59.732292l0 0c-32.989227 0 -59.732277 -26.743057 -59.732277 -59.732292z" fill-rule="nonzero"></path><path fill="#ffffff" d="m53.015747 37.841206l0 0c0 -5.331505 4.3220406 -9.653542 9.653545 -9.653542l0 0c2.560276 0 5.0156975 1.017067 6.826084 2.8274574c1.8103943 1.8103905 2.8274612 4.265808 2.8274612 6.826084l0 0c0 5.331505 -4.3220444 9.653545 -9.653545 9.653545l0 0c-5.331505 0 -9.653545 -4.3220406 -9.653545 -9.653545z" fill-rule="nonzero"></path><path stroke="#ffffff" stroke-width="2.0" stroke-linejoin="round" stroke-linecap="butt" d="m53.015747 37.841206l0 0c0 -5.331505 4.3220406 -9.653542 9.653545 -9.653542l0 0c2.560276 0 5.0156975 1.017067 6.826084 2.8274574c1.8103943 1.8103905 2.8274612 4.265808 2.8274612 6.826084l0 0c0 5.331505 -4.3220444 9.653545 -9.653545 9.653545l0 0c-5.331505 0 -9.653545 -4.3220406 -9.653545 -9.653545z" fill-rule="nonzero"></path><path fill="#ffffff" d="m134.74016 87.92257l0 0c0 -2.6787949 2.1716003 -4.8503876 4.8503876 -4.8503876l0 0c1.2864075 0 2.5201263 0.51101685 3.4297485 1.4206467c0.9096222 0.9096222 1.4206543 2.143341 1.4206543 3.429741l0 0c0 2.6788025 -2.1716003 4.850395 -4.850403 4.850395l0 0c-2.6787872 0 -4.8503876 -2.1715927 -4.8503876 -4.850395z" fill-rule="nonzero"></path><path fill="#000000" fill-opacity="0.0" d="m62.669292 128.34514l0 -80.85039" fill-rule="nonzero"></path><path stroke="#ffffff" stroke-width="2.0" stroke-linejoin="round" stroke-linecap="butt" d="m62.669292 128.34514l0 -80.85039" fill-rule="nonzero"></path><path fill="#000000" fill-opacity="0.0" d="m67.519684 147.65224l-9.700787 0l0 -19.307098l9.700787 0z" fill-rule="nonzero"></path><path stroke="#ffffff" stroke-width="2.0" stroke-linejoin="round" stroke-linecap="butt" d="m67.519684 147.65224l-9.700787 0l0 -19.307098l9.700787 0z" fill-rule="nonzero"></path><path fill="#000000" fill-opacity="0.0" d="m21.73491 167.03018l213.10236 0l0 75.33858l-213.10236 0z" fill-rule="nonzero"></path><path fill="#ffffff" d="m53.39367 207.16705q0 1.125 -0.453125 2.0625q-0.453125 0.921875 -1.234375 1.59375q-0.765625 0.671875 -1.796875 1.046875q-1.015625 0.359375 -2.125 0.359375l-1.484375 0q-1.125 0 -2.15625 -0.421875q-1.015625 -0.421875 -1.78125 -1.15625q-0.765625 -0.75 -1.234375 -1.734375q-0.453125 -1.0 -0.453125 -2.125l0 -0.734375l2.21875 -0.359375l0 1.21875q0 0.671875 0.28125 1.265625q0.28125 0.578125 0.75 1.015625q0.46875 0.4375 1.078125 0.6875q0.625 0.25 1.296875 0.25l1.484375 0q0.65625 0 1.265625 -0.1875q0.625 -0.203125 1.09375 -0.578125q0.484375 -0.375 0.765625 -0.890625q0.28125 -0.53125 0.28125 -1.203125q0 -0.984375 -0.4375 -1.609375q-0.421875 -0.640625 -1.140625 -1.0625q-0.71875 -0.4375 -1.625 -0.703125q-0.90625 -0.28125 -1.875 -0.5625q-0.953125 -0.28125 -1.875 -0.640625q-0.90625 -0.375 -1.625 -0.953125q-0.703125 -0.59375 -1.140625 -1.46875q-0.4375 -0.890625 -0.4375 -2.203125q0 -1.125 0.4375 -2.046875q0.4375 -0.9375 1.171875 -1.609375q0.75 -0.671875 1.734375 -1.03125q0.984375 -0.375 2.09375 -0.375l1.3125 0q1.109375 0 2.109375 0.421875q1.0 0.421875 1.734375 1.171875q0.734375 0.734375 1.15625 1.734375q0.4375 0.984375 0.4375 2.109375l0 0.078125l-2.234375 0.359375l0 -0.5625q0 -0.671875 -0.25 -1.25q-0.25 -0.59375 -0.6875 -1.03125q-0.421875 -0.4375 -1.015625 -0.6875q-0.59375 -0.25 -1.25 -0.25l-1.3125 0q-0.65625 0 -1.25 0.203125q-0.59375 0.1875 -1.03125 0.5625q-0.421875 0.375 -0.671875 0.90625q-0.25 0.515625 -0.25 1.1875q0 0.953125 0.421875 1.5625q0.4375 0.59375 1.140625 1.015625q0.71875 0.421875 1.625 0.703125q0.921875 0.265625 1.875 0.578125q0.953125 0.296875 1.859375 0.671875q0.90625 0.375 1.625 0.96875q0.71875 0.59375 1.140625 1.5q0.4375 0.890625 0.4375 2.203125zm16.773651 -0.375q0 1.125 -0.421875 2.125q-0.421875 0.984375 -1.171875 1.734375q-0.734375 0.734375 -1.734375 1.15625q-0.984375 0.421875 -2.109375 0.421875l-0.5625 0q-1.25 0 -2.3125 -0.5q-1.0625 -0.515625 -1.828125 -1.40625l0 8.953125l-2.21875 0l0 -25.90625l0.75 0l1.203125 1.875q0.765625 -1.03125 1.90625 -1.625q1.15625 -0.609375 2.5 -0.609375l0.5625 0q1.125 0 2.109375 0.421875q1.0 0.421875 1.734375 1.171875q0.75 0.734375 1.171875 1.734375q0.421875 0.984375 0.421875 2.109375l0 8.34375l0 0zm-2.21875 -8.46875q0 -0.671875 -0.25 -1.25q-0.25 -0.59375 -0.6875 -1.03125q-0.4375 -0.4375 -1.03125 -0.6875q-0.578125 -0.25 -1.25 -0.25l-1.484375 0q-0.671875 0 -1.265625 0.25q-0.578125 0.25 -1.015625 0.6875q-0.421875 0.4375 -0.6875 1.03125q-0.25 0.578125 -0.25 1.25l0 8.59375q0 0.671875 0.25 1.265625q0.265625 0.578125 0.6875 1.015625q0.4375 0.4375 1.015625 0.6875q0.59375 0.25 1.265625 0.25l1.484375 0q0.671875 0 1.25 -0.25q0.59375 -0.25 1.03125 -0.6875q0.4375 -0.4375 0.6875 -1.015625q0.25 -0.59375 0.25 -1.265625l0 -8.59375zm19.16951 8.46875q0 1.125 -0.421875 2.125q-0.421875 0.984375 -1.171875 1.734375q-0.734375 0.734375 -1.734375 1.15625q-0.984375 0.421875 -2.109375 0.421875l-1.484375 0q-1.109375 0 -2.109375 -0.421875q-1.0 -0.421875 -1.734375 -1.15625q-0.734375 -0.75 -1.171875 -1.734375q-0.421875 -1.0 -0.421875 -2.125l0 -8.34375q0 -1.125 0.421875 -2.109375q0.4375 -1.0 1.171875 -1.734375q0.734375 -0.75 1.734375 -1.171875q1.0 -0.421875 2.109375 -0.421875l1.484375 0q1.125 0 2.109375 0.421875q1.0 0.421875 1.734375 1.171875q0.75 0.734375 1.171875 1.734375q0.421875 0.984375 0.421875 2.109375l0 4.359375l-10.140625 0l0 4.109375q0 0.671875 0.25 1.265625q0.265625 0.578125 0.6875 1.015625q0.4375 0.4375 1.015625 0.6875q0.59375 0.25 1.265625 0.25l1.484375 0q0.671875 0 1.25 -0.25q0.59375 -0.25 1.03125 -0.6875q0.4375 -0.4375 0.6875 -1.015625q0.25 -0.59375 0.25 -1.265625l0 -1.21875l2.21875 0.359375l0 0.734375l0 0zm-2.21875 -8.46875q0 -0.671875 -0.25 -1.25q-0.25 -0.59375 -0.6875 -1.03125q-0.4375 -0.4375 -1.03125 -0.6875q-0.578125 -0.25 -1.25 -0.25l-1.484375 0q-0.671875 0 -1.265625 0.25q-0.578125 0.25 -1.015625 0.6875q-0.421875 0.4375 -0.6875 1.03125q-0.25 0.578125 -0.25 1.25l0 2.75l7.921875 0l0 -2.75zm19.16951 8.46875q0 1.125 -0.421875 2.125q-0.421875 0.984375 -1.171875 1.734375q-0.734375 0.734375 -1.734375 1.15625q-0.984375 0.421875 -2.109375 0.421875l-1.484375 0q-1.109375 0 -2.109375 -0.421875q-1.0 -0.421875 -1.734375 -1.15625q-0.734375 -0.75 -1.171875 -1.734375q-0.421875 -1.0 -0.421875 -2.125l0 -8.34375q0 -1.125 0.421875 -2.109375q0.4375 -1.0 1.171875 -1.734375q0.734375 -0.75 1.734375 -1.171875q1.0 -0.421875 2.109375 -0.421875l1.484375 0q1.125 0 2.109375 0.421875q1.0 0.421875 1.734375 1.171875q0.75 0.734375 1.171875 1.734375q0.421875 0.984375 0.421875 2.109375l0 0.734375l-2.21875 0.359375l0 -1.21875q0 -0.671875 -0.25 -1.25q-0.25 -0.59375 -0.6875 -1.03125q-0.4375 -0.4375 -1.03125 -0.6875q-0.578125 -0.25 -1.25 -0.25l-1.484375 0q-0.671875 0 -1.265625 0.25q-0.578125 0.25 -1.015625 0.6875q-0.421875 0.4375 -0.6875 1.03125q-0.25 0.578125 -0.25 1.25l0 8.59375q0 0.671875 0.25 1.265625q0.265625 0.578125 0.6875 1.015625q0.4375 0.4375 1.015625 0.6875q0.59375 0.25 1.265625 0.25l1.484375 0q0.671875 0 1.25 -0.25q0.59375 -0.25 1.03125 -0.6875q0.4375 -0.4375 0.6875 -1.015625q0.25 -0.59375 0.25 -1.265625l0 -1.21875l2.21875 0.359375l0 0.734375l0 0zm11.341385 5.078125q-1.015625 0 -1.921875 -0.375q-0.890625 -0.390625 -1.546875 -1.046875q-0.65625 -0.671875 -1.046875 -1.546875q-0.390625 -0.890625 -0.390625 -1.90625l0 -11.515625l-3.328125 0l0 -2.109375l3.328125 0l0 -4.4375l2.21875 -0.375l0 4.8125l4.703125 0l0 2.109375l-4.703125 0l0 11.625q0 0.5625 0.203125 1.046875q0.21875 0.46875 0.578125 0.828125q0.359375 0.359375 0.84375 0.578125q0.5 0.203125 1.0625 0.203125l2.015625 0l0 2.109375l-2.015625 0zm11.646637 -16.390625q-0.671875 0 -1.265625 0.265625q-0.578125 0.25 -1.015625 0.6875q-0.421875 0.421875 -0.6875 1.015625q-0.25 0.578125 -0.25 1.25l0 13.171875l-2.21875 0l0 -18.5l0.75 0l1.203125 1.875q0.765625 -1.03125 1.90625 -1.625q1.15625 -0.609375 2.5 -0.609375l1.2968674 0l0 2.46875l-2.2187424 0zm16.904747 16.390625l-1.234375 -1.84375q-0.75 1.0 -1.890625 1.609375q-1.140625 0.59375 -2.5 0.59375l-0.5625 0q-1.109375 0 -2.109375 -0.421875q-1.0 -0.421875 -1.734375 -1.15625q-0.734375 -0.75 -1.171875 -1.734375q-0.421875 -1.0 -0.421875 -2.125l0 -0.171875q0 -1.125 0.421875 -2.109375q0.4375 -1.0 1.171875 -1.734375q0.734375 -0.75 1.734375 -1.171875q1.0 -0.4375 2.109375 -0.4375l4.703125 0l0 -2.84375q0 -0.671875 -0.25 -1.25q-0.25 -0.59375 -0.6875 -1.03125q-0.4375 -0.4375 -1.03125 -0.6875q-0.578125 -0.25 -1.25 -0.25l-1.296875 0q-0.671875 0 -1.265625 0.25q-0.578125 0.25 -1.015625 0.6875q-0.4375 0.4375 -0.6875 1.03125q-0.25 0.578125 -0.25 1.25l0 0.671875l-2.21875 -0.375l0 -0.171875q0 -1.125 0.421875 -2.109375q0.421875 -1.0 1.15625 -1.734375q0.75 -0.75 1.734375 -1.171875q1.0 -0.421875 2.125 -0.421875l1.296875 0q1.125 0 2.109375 0.421875q1.0 0.421875 1.734375 1.171875q0.75 0.734375 1.171875 1.734375q0.421875 0.984375 0.421875 2.109375l0 13.421875l-0.734375 0zm-1.484375 -8.96875l-4.703125 0q-0.671875 0 -1.265625 0.265625q-0.578125 0.25 -1.015625 0.703125q-0.421875 0.4375 -0.6875 1.03125q-0.25 0.578125 -0.25 1.234375l0 0.78125q0 0.671875 0.25 1.265625q0.265625 0.578125 0.6875 1.015625q0.4375 0.4375 1.015625 0.6875q0.59375 0.25 1.265625 0.25l1.484375 0q0.671875 0 1.25 -0.25q0.59375 -0.25 1.03125 -0.6875q0.4375 -0.4375 0.6875 -1.015625q0.25 -0.59375 0.25 -1.265625l0 -4.015625zm19.35701 11.296875q0 1.125 -0.4375 2.0625q-0.421875 0.9375 -1.15625 1.609375q-0.734375 0.671875 -1.734375 1.03125q-1.0 0.375 -2.109375 0.375l-0.921875 0q-1.125 0 -2.125 -0.375q-0.984375 -0.359375 -1.734375 -1.03125q-0.734375 -0.671875 -1.15625 -1.609375q-0.421875 -0.9375 -0.421875 -2.0625l0 -0.0625q0 -1.09375 0.390625 -2.0q0.40625 -0.890625 1.078125 -1.5625q-0.859375 -0.53125 -1.375 -1.421875q-0.515625 -0.890625 -0.515625 -1.984375q0 -0.96875 0.40625 -1.8125q0.421875 -0.84375 1.140625 -1.359375q-0.859375 -0.765625 -1.375 -1.828125q-0.5 -1.0625 -0.5 -2.328125l0 -1.390625q0 -1.125 0.421875 -2.109375q0.4375 -1.0 1.171875 -1.734375q0.734375 -0.75 1.734375 -1.171875q1.0 -0.421875 2.109375 -0.421875l0.921875 0q1.359375 0 2.5 0.609375q1.15625 0.59375 1.90625 1.625l1.21875 -1.875l0.734375 0l0 6.46875q0 1.125 -0.421875 2.125q-0.421875 0.984375 -1.171875 1.734375q-0.734375 0.734375 -1.734375 1.15625q-0.984375 0.421875 -2.109375 0.421875l-3.21875 0q-0.375 0 -0.71875 0.15625q-0.34375 0.15625 -0.609375 0.40625q-0.25 0.25 -0.40625 0.609375q-0.140625 0.34375 -0.140625 0.71875q0 0.390625 0.140625 0.734375q0.15625 0.34375 0.40625 0.609375q0.265625 0.25 0.609375 0.40625q0.34375 0.140625 0.71875 0.140625l3.046875 0q1.109375 0 2.109375 0.375q1.0 0.359375 1.734375 1.03125q0.734375 0.671875 1.15625 1.609375q0.4375 0.9375 0.4375 2.0625l0 0.0625l0 0zm-2.03125 -15.875q0 -0.671875 -0.25 -1.25q-0.25 -0.59375 -0.703125 -1.03125q-0.4375 -0.4375 -1.03125 -0.6875q-0.578125 -0.25 -1.25 -0.25l-1.84375 0q-0.671875 0 -1.265625 0.25q-0.578125 0.25 -1.015625 0.6875q-0.421875 0.4375 -0.6875 1.03125q-0.25 0.578125 -0.25 1.25l0 1.640625q0 0.671875 0.25 1.265625q0.265625 0.578125 0.6875 1.015625q0.4375 0.421875 1.015625 0.6875q0.59375 0.25 1.265625 0.25l1.84375 0q0.671875 0 1.25 -0.25q0.59375 -0.265625 1.03125 -0.6875q0.453125 -0.4375 0.703125 -1.015625q0.25 -0.59375 0.25 -1.265625l0 -1.640625zm-0.09375 15.703125q0 -0.671875 -0.25 -1.203125q-0.25 -0.53125 -0.6875 -0.90625q-0.421875 -0.359375 -1.015625 -0.546875q-0.59375 -0.203125 -1.25 -0.203125l-1.140625 0q-0.671875 0 -1.265625 0.203125q-0.578125 0.1875 -1.015625 0.546875q-0.4375 0.375 -0.6875 0.90625q-0.25 0.53125 -0.25 1.203125l0 0.28125q0 0.671875 0.25 1.1875q0.25 0.53125 0.6875 0.890625q0.4375 0.375 1.015625 0.578125q0.59375 0.203125 1.265625 0.203125l1.140625 0q0.65625 0 1.25 -0.203125q0.59375 -0.203125 1.015625 -0.578125q0.4375 -0.359375 0.6875 -0.890625q0.25 -0.515625 0.25 -1.1875l0 -0.28125zm11.9664 -18.546875q-0.671875 0 -1.265625 0.265625q-0.578125 0.25 -1.015625 0.6875q-0.421875 0.421875 -0.6875 1.015625q-0.25 0.578125 -0.25 1.25l0 13.171875l-2.21875 0l0 -18.5l0.75 0l1.203125 1.875q0.765625 -1.03125 1.90625 -1.625q1.15625 -0.609375 2.5 -0.609375l1.296875 0l0 2.46875l-2.21875 0zm16.904755 16.390625l-1.234375 -1.84375q-0.75 1.0 -1.890625 1.609375q-1.140625 0.59375 -2.5 0.59375l-0.5625 0q-1.109375 0 -2.109375 -0.421875q-1.0 -0.421875 -1.734375 -1.15625q-0.734375 -0.75 -1.171875 -1.734375q-0.421875 -1.0 -0.421875 -2.125l0 -0.171875q0 -1.125 0.421875 -2.109375q0.4375 -1.0 1.171875 -1.734375q0.734375 -0.75 1.734375 -1.171875q1.0 -0.4375 2.109375 -0.4375l4.703125 0l0 -2.84375q0 -0.671875 -0.25 -1.25q-0.25 -0.59375 -0.6875 -1.03125q-0.4375 -0.4375 -1.03125 -0.6875q-0.578125 -0.25 -1.25 -0.25l-1.296875 0q-0.671875 0 -1.265625 0.25q-0.578125 0.25 -1.015625 0.6875q-0.4375 0.4375 -0.6875 1.03125q-0.25 0.578125 -0.25 1.25l0 0.671875l-2.21875 -0.375l0 -0.171875q0 -1.125 0.421875 -2.109375q0.421875 -1.0 1.15625 -1.734375q0.75 -0.75 1.734375 -1.171875q1.0 -0.421875 2.125 -0.421875l1.296875 0q1.125 0 2.109375 0.421875q1.0 0.421875 1.734375 1.171875q0.75 0.734375 1.171875 1.734375q0.421875 0.984375 0.421875 2.109375l0 13.421875l-0.734375 0zm-1.484375 -8.96875l-4.703125 0q-0.671875 0 -1.265625 0.265625q-0.578125 0.25 -1.015625 0.703125q-0.421875 0.4375 -0.6875 1.03125q-0.25 0.578125 -0.25 1.234375l0 0.78125q0 0.671875 0.25 1.265625q0.265625 0.578125 0.6875 1.015625q0.4375 0.4375 1.015625 0.6875q0.59375 0.25 1.265625 0.25l1.484375 0q0.671875 0 1.25 -0.25q0.59375 -0.25 1.03125 -0.6875q0.4375 -0.4375 0.6875 -1.015625q0.25 -0.59375 0.25 -1.265625l0 -4.015625zm26.34137 8.96875l0 -13.546875q0 -0.671875 -0.25 -1.25q-0.25 -0.59375 -0.6875 -1.03125q-0.4375 -0.4375 -1.03125 -0.6875q-0.578125 -0.25 -1.25 -0.25l-1.09375 0q-0.671875 0 -1.265625 0.25q-0.578125 0.25 -1.03125 0.6875q-0.4375 0.4375 -0.6875 1.03125q-0.25 0.578125 -0.25 1.25l0 13.546875l-2.203125 0l0 -13.546875q0 -0.671875 -0.265625 -1.25q-0.25 -0.59375 -0.6875 -1.03125q-0.4375 -0.4375 -1.03125 -0.6875q-0.578125 -0.25 -1.25 -0.25l-1.109375 0q-0.671875 0 -1.265625 0.25q-0.578125 0.25 -1.015625 0.6875q-0.421875 0.4375 -0.6875 1.03125q-0.25 0.578125 -0.25 1.25l0 13.546875l-2.21875 0l0 -18.5l0.75 0l1.203125 1.875q0.765625 -1.03125 1.90625 -1.625q1.15625 -0.609375 2.5 -0.609375l0.1875 0q1.5625 0 2.828125 0.78125q1.265625 0.765625 1.953125 2.046875q0.34375 -0.625 0.84375 -1.140625q0.515625 -0.53125 1.125 -0.90625q0.625 -0.375 1.34375 -0.578125q0.71875 -0.203125 1.5 -0.203125l0.171875 0q1.125 0 2.109375 0.421875q1.0 0.421875 1.734375 1.171875q0.75 0.734375 1.171875 1.734375q0.421875 0.984375 0.421875 2.109375l0 13.421875l-2.21875 0z" fill-rule="nonzero"></path></g></svg>

